# xmcd
#
# Track frame offsets: 
#        150
#        17319
#        30910
#        45036
#        69262
#        87406
#        106154
#        123202
#        139857
#        161608
#        177774
#        199281
#        227520
#
# Disc length: 3207 seconds
#
# Revision: 0
# Processed by: cddbd v1.4PL0 Copyright (c) Steve Scherf et al.
# Submitted via: ExactAudioCopy v0.95a3
#
DISCID=8f0c850d
DTITLE=Jimmie Dale Gilmore - One Endless Night
DYEAR=1900
DGENRE=Country
TTITLE0=One Endless Night
TTITLE1=Banks of the Guadalupe
TTITLE2=No Lonesome Tune
TTITLE3=Goodbye Old Missoula
TTITLE4=Georgia Rose
TTITLE5=Your Love is My Rest
TTITLE6=Blue Shadows
TTITLE7=Defying Gravity
TTITLE8=Ripple
TTITLE9=Ramblin' Man
TTITLE10=Darcy Farrow
TTITLE11=Mack the Knife
TTITLE12=DFW
EXTD=
EXTT0=
EXTT1=
EXTT2=
EXTT3=
EXTT4=
EXTT5=
EXTT6=
EXTT7=
EXTT8=
EXTT9=
EXTT10=
EXTT11=
EXTT12=
PLAYORDER=
